<svg version="1.0" xmlns="http://www.w3.org/2000/svg"
 width="338.000000pt" height="338.000000pt" viewBox="0 0 338.000000 338.000000"
 preserveAspectRatio="xMidYMid meet">

<g transform="translate(0.000000,338.000000) scale(0.100000,-0.100000)"
fill="#000000" stroke="none">
<path d="M1286 2821 c-78 -7 -80 -8 -121 -54 -35 -37 -50 -68 -79 -157 -45
-140 -55 -159 -110 -207 -66 -58 -97 -65 -308 -70 l-188 -5 0 -87 c0 -47 7
-213 15 -369 12 -223 13 -335 5 -530 -6 -136 -13 -354 -17 -484 l-6 -238 1212
0 1213 0 -6 27 c-14 72 -30 568 -30 923 0 341 14 684 30 741 4 14 -18 17 -196
21 -192 5 -202 7 -255 33 -79 38 -118 93 -160 229 -41 130 -70 178 -128 208
-41 21 -54 22 -417 24 -206 1 -411 -1 -454 -5z m613 -178 c43 -41 45 -62 14
-112 l-28 -43 -195 4 c-107 2 -203 8 -213 12 -27 13 -49 63 -42 97 4 16 18 38
32 49 24 18 40 20 214 20 l189 0 29 -27z m-175 -403 c18 -10 46 -39 63 -63 46
-64 126 -229 158 -327 33 -99 61 -143 144 -225 l61 -59 0 -238 0 -238 -49 0
c-71 0 -91 10 -175 91 l-76 71 -34 -16 c-47 -22 -210 -22 -266 0 l-40 16 -86
-78 -86 -78 -64 -4 -64 -4 0 232 0 233 84 87 c82 85 84 88 121 201 52 156 128
301 190 367 56 57 72 62 119 32z m-83 -1132 c13 -123 73 -118 88 6 5 44 9 51
30 54 36 5 51 -22 51 -93 0 -49 -6 -75 -31 -123 -27 -55 -77 -112 -98 -112
-21 0 -63 46 -90 101 -37 73 -46 132 -31 188 10 40 13 42 43 39 31 -3 32 -5
38 -60z"/>
<path d="M1658 1952 c-39 -43 -58 -75 -58 -99 0 -22 3 -23 85 -23 61 0 85 3
85 13 0 16 -54 110 -72 125 -12 9 -20 6 -40 -16z"/>
</g>
</svg>
